<?xml version="1.0" encoding="UTF-8"?>
<svg version="1.1" xmlns="http://www.w3.org/2000/svg" width="1024" height="1024">
<path d="M0 0 C0.66 0.33 1.32 0.66 2 1 C2 1.66 2 2.32 2 3 C2.87371246 3.38671875 2.87371246 3.38671875 3.76507568 3.78125 C6.19063451 5.1039569 7.80514441 6.55128454 9.75878906 8.5 C10.47923401 9.21414062 11.19967896 9.92828125 11.94195557 10.6640625 C12.70876648 11.43492187 13.47557739 12.20578125 14.265625 13 C15.05902283 13.79148438 15.85242065 14.58296875 16.66986084 15.3984375 C18.34324054 17.07045737 20.01410181 18.74500097 21.68261719 20.421875 C24.24713597 22.99712398 26.82216989 25.56151052 29.3984375 28.125 C31.02147527 29.74935884 32.64389281 31.37433769 34.265625 33 C35.42798676 34.15628906 35.42798676 34.15628906 36.61383057 35.3359375 C37.32166687 36.05007812 38.02950317 36.76421875 38.75878906 37.5 C39.69999603 38.44359375 39.69999603 38.44359375 40.66021729 39.40625 C42 41 42 41 42 43 C42.58265625 43.25910156 43.1653125 43.51820313 43.765625 43.78515625 C46.16343838 45.08886248 47.81756794 46.51745533 49.75 48.4375 C50.36359375 49.03433594 50.9771875 49.63117188 51.609375 50.24609375 C53 52 53 52 53 55 C52.34 55 51.68 55 51 55 C50.67 55.99 50.34 56.98 50 58 C48.55492459 59.24801967 47.10461682 60.49123715 45.61328125 61.68359375 C42.20685912 64.46316823 39.32969518 67.59422132 36.5625 71 C33.93248768 74.07903881 31.1374966 76.45078401 28 79 C25.50149224 81.3795312 23.22878255 83.70258268 21.125 86.4375 C18.91098741 89.10733871 16.55604562 91.18856599 13.87890625 93.375 C8.59448121 97.94531354 4.00688773 103.2349178 -0.62695312 108.44726562 C-3.30111737 111.39395616 -5.40533873 113.24670196 -9 115 C-9.2594232 115.56593243 -9.5188464 116.13186485 -9.78613091 116.71494675 C-11.41659424 119.78421967 -13.72849933 121.99752304 -16.17581177 124.4163208 C-16.70838242 124.95060031 -17.24095308 125.48487981 -17.78966224 126.03534961 C-19.57527074 127.82425212 -21.36793315 129.60591297 -23.16064453 131.38769531 C-24.44214097 132.66862762 -25.7231972 133.95000046 -27.00384521 135.23178101 C-30.48262237 138.71113259 -33.96753689 142.18427803 -37.45356989 145.65635777 C-41.09532696 149.28562265 -44.73143095 152.92054216 -48.36813354 156.55487061 C-55.2560149 163.43653275 -62.1489792 170.31308024 -69.04377544 177.18781352 C-76.89283488 185.0145277 -84.7362243 192.84691341 -92.57913804 200.67978525 C-108.71311561 216.79285084 -124.8542154 232.89876605 -141 249 C-143.35127797 246.66865336 -145.59413505 244.37745152 -147.62109375 241.7578125 C-148.08193359 241.16613281 -148.54277344 240.57445312 -149.01757812 239.96484375 C-149.48615234 239.35769531 -149.95472656 238.75054687 -150.4375 238.125 C-155.89667852 230.08274058 -155.89667852 230.08274058 -163 224 C-163 223.34 -163 222.68 -163 222 C-164.32 221.34 -165.64 220.68 -167 220 C-167 219.34 -167 218.68 -167 218 C-167.88703613 217.5824646 -167.88703613 217.5824646 -168.79199219 217.15649414 C-170.84829488 216.079459 -172.51577078 214.93589664 -174.328125 213.49609375 C-207.07342101 187.93252268 -246.89487139 177.15162348 -288.24511719 181.77294922 C-299.42803105 183.20203126 -310.07348439 185.93928682 -320.81201172 189.32861328 C-322.87528336 189.96173056 -324.94699736 190.51466418 -327.03515625 191.05859375 C-328.50275391 191.52458984 -328.50275391 191.52458984 -330 192 C-330.33 192.66 -330.66 193.32 -331 194 C-332.99727223 194.67479484 -334.99794561 195.33952845 -337 196 C-370.06385922 211.58504737 -396.10417745 241.1414782 -408.82373047 275.20605469 C-418.96922587 303.57996227 -420.48546318 334.74703131 -413 364 C-412.81808105 364.71994141 -412.63616211 365.43988281 -412.44873047 366.18164062 C-406.76280349 387.868447 -396.27970507 407.90112436 -381.30371094 424.54052734 C-380.09931301 425.88882151 -378.92697501 427.26557129 -377.7578125 428.64453125 C-369.28796921 438.49499002 -359.47797854 446.85941103 -348 453 C-348.47553441 457.2491197 -351.11887044 459.5331861 -354.02191162 462.3894043 C-354.81419423 463.18659016 -354.81419423 463.18659016 -355.62248254 463.99988079 C-357.3971802 465.78187098 -359.18240973 467.55291964 -360.96777344 469.32421875 C-362.24121775 470.59845378 -363.51400896 471.87334179 -364.78619385 473.14883423 C-368.24650561 476.614287 -371.71609275 480.07031619 -375.18751812 483.5246315 C-378.81776126 487.13985063 -382.43991025 490.76316188 -386.06304932 494.38549805 C-392.15128451 500.47003845 -398.24513191 506.54891033 -404.34277344 512.62402344 C-412.16615166 520.41855584 -419.98027174 528.22230095 -427.79146957 536.02903748 C-434.5077468 542.74133091 -441.22827898 549.44935955 -447.94949055 556.15671158 C-450.10889028 558.3120162 -452.26770612 560.46790436 -454.42644501 562.62387085 C-457.82203789 566.01456046 -461.22027587 569.40257764 -464.62056732 572.78855515 C-465.86744113 574.0309163 -467.11348372 575.27411233 -468.35862732 576.51820755 C-470.06017016 578.2179968 -471.76475422 579.91467718 -473.47015381 581.6105957 C-473.96073076 582.10203914 -474.45130771 582.59348257 -474.95675063 583.09981823 C-477.12996645 585.25497261 -479.3171818 587.25057964 -481.72061539 589.14933777 C-484.19508008 590.97161351 -484.19508008 590.97161351 -486 594 C-486.66 594 -487.32 594 -488 594 C-488 594.66 -488 595.32 -488 596 C-489.57421875 597.515625 -489.57421875 597.515625 -491.6875 599.25 C-495.21733339 602.24106935 -498.04273825 605.43612046 -501 609 C-502.72823479 610.5718516 -504.50593871 612.06744677 -506.30078125 613.5625 C-509.46524175 616.23956084 -512.29827362 619.08049647 -514.8125 622.375 C-517.27565121 625.33078145 -519.99621522 627.67706134 -522.9140625 630.171875 C-526.09864797 632.96286002 -529.03755865 635.97764411 -532 639 C-533.66584306 640.66748987 -535.33267392 642.33399301 -537 644 C-537.98482856 644.98473524 -538.96960873 645.96951887 -539.9543457 646.9543457 C-547.63623047 654.63623047 -555.31811523 662.31811523 -563 670 C-567.92835193 666.95974029 -571.85703508 663.43591632 -575.9296875 659.3359375 C-576.88248093 658.38601425 -576.88248093 658.38601425 -577.85452271 657.41690063 C-579.18639777 656.08637946 -580.51577907 654.75335773 -581.84277344 653.41796875 C-583.88254122 651.36741892 -585.9328545 649.32784672 -587.984375 647.2890625 C-589.27928823 645.99282893 -590.57358161 644.69597577 -591.8671875 643.3984375 C-592.48270477 642.78696869 -593.09822205 642.17549988 -593.73239136 641.54550171 C-598 637.22995531 -598 637.22995531 -598 635 C-598.66 635 -599.32 635 -600 635 C-601.7265625 633.35546875 -601.7265625 633.35546875 -603.625 631.1875 C-604.25664063 630.47980469 -604.88828125 629.77210938 -605.5390625 629.04296875 C-607 627 -607 627 -607 624 C-605.7177248 622.34858131 -605.7177248 622.34858131 -603.88264465 620.5218811 C-603.19149567 619.82660812 -602.50034668 619.13133514 -601.78825378 618.41499329 C-600.63586967 617.27878792 -600.63586967 617.27878792 -599.46020508 616.11962891 C-598.25793274 614.91669945 -598.25793274 614.91669945 -597.03137207 613.68946838 C-594.36780458 611.02799835 -591.69374835 608.37732827 -589.01953125 605.7265625 C-587.16997605 603.8826024 -585.32108204 602.03797889 -583.4728241 600.19271851 C-579.09318005 595.82241145 -574.70594764 591.45980475 -570.31595391 587.09989679 C-565.33988383 582.15720754 -560.3721885 577.20613869 -555.40524828 572.25427747 C-546.90650872 563.78161998 -538.40151601 555.31527306 -529.88938904 546.85606384 C-528.51975709 545.49485164 -527.15037309 544.13338989 -525.78130531 542.77161026 C-524.66732287 541.66369086 -523.55268301 540.55643163 -522.43706322 539.45016098 C-520.25570638 537.28160007 -518.20170214 535.11647418 -516.3125 532.6875 C-515.549375 531.800625 -514.78625 530.91375 -514 530 C-513.34 530 -512.68 530 -512 530 C-512 529.34 -512 528.68 -512 528 C-510.3765909 526.2702876 -508.71152627 524.64060897 -507 523 C-505.55346446 521.55900831 -504.11000982 520.1149209 -502.66870117 518.66870117 C-490.44580078 506.44580078 -478.22290039 494.22290039 -466 482 C-469.36396118 478.56658793 -472.5730731 475.78138851 -476.625 473.1875 C-491.9092453 463.20328603 -506.18709311 451.91086222 -520 440 C-521.07507813 439.07767578 -521.07507813 439.07767578 -522.171875 438.13671875 C-524.13030178 436.44130383 -526.06807318 434.72556999 -528 433 C-528.7422583 432.34136963 -528.7422583 432.34136963 -529.49951172 431.66943359 C-531.17204282 430.18169618 -532.83673188 428.68558136 -534.5 427.1875 C-535.04148682 426.70667969 -535.58297363 426.22585938 -536.14086914 425.73046875 C-537.4658668 424.52821536 -538.73804381 423.26826597 -540 422 C-540 421.34 -540 420.68 -540 420 C-540.54269531 419.79246094 -541.08539062 419.58492187 -541.64453125 419.37109375 C-544.90173688 417.47510838 -547.19409765 414.8370232 -549.6875 412.0625 C-550.21641846 411.48129395 -550.74533691 410.90008789 -551.2902832 410.30126953 C-555.29454519 405.86687757 -559.13269736 401.31363585 -562.87109375 396.65234375 C-564.26094276 394.92077039 -565.66915992 393.20373707 -567.09765625 391.50390625 C-577.83082125 378.70592185 -587.32274728 364.99286517 -596.03515625 350.75390625 C-598.04649026 347.47374951 -600.16054984 344.3014639 -602.37109375 341.15234375 C-602.90653809 340.36085938 -603.44198242 339.569375 -603.99365234 338.75390625 C-605.01096879 337.25183678 -606.05818271 335.76942594 -607.13916016 334.3125 C-608.56693973 332.15065271 -609.47742728 330.54172054 -610 328 C-608.99383761 324.24466343 -607.09996435 321.24499284 -605 318 C-604.56131592 317.25709717 -604.12263184 316.51419434 -603.6706543 315.7487793 C-602.34386268 313.51121332 -600.96399558 311.31648116 -599.5625 309.125 C-599.0480835 308.31691895 -598.53366699 307.50883789 -598.00366211 306.67626953 C-583.12119341 283.50593226 -566.56504547 261.60824415 -548.02734375 241.24609375 C-546.24969012 239.27663164 -544.52789863 237.27340038 -542.8125 235.25 C-534.92785142 226.20476063 -526.19594367 217.70052853 -517 210 C-515.60974609 208.7934375 -515.60974609 208.7934375 -514.19140625 207.5625 C-439.02977386 142.54639331 -340.61413316 114.55676979 -238.10546875 121.37890625 C-207.42177417 123.63010262 -178.21682681 129.29786799 -149 139 C-148.09958984 139.2985791 -147.19917969 139.5971582 -146.27148438 139.90478516 C-144.18006925 140.60042927 -142.08988078 141.29975986 -140 142 C-139.55897949 141.46310547 -139.11795898 140.92621094 -138.66357422 140.37304688 C-135.5078125 136.53125 -135.5078125 136.53125 -134 135 C-133.34 135 -132.68 135 -132 135 C-132 134.34 -132 133.68 -132 133 C-130.90323473 131.8346869 -129.79450536 130.67892632 -128.63671875 129.57421875 C-127.38651837 128.37175872 -126.16497738 127.13943176 -124.95703125 125.89453125 C-124.24933594 125.16621094 -123.54164063 124.43789063 -122.8125 123.6875 C-121.80123047 122.64142578 -121.80123047 122.64142578 -120.76953125 121.57421875 C-119 120 -119 120 -117 120 C-116.6596875 119.1646875 -116.6596875 119.1646875 -116.3125 118.3125 C-114.62442195 115.33826725 -112.45059299 113.39587176 -110 111 C-108.93866058 109.94331662 -107.87859882 108.8853489 -106.81959534 107.82632446 C-105.61094577 106.62069279 -104.40228092 105.41507643 -103.19360352 104.20947266 C-96.43047049 97.46269825 -89.66990009 90.71336187 -82.91076756 83.96257973 C-78.82782146 79.88485708 -74.74394356 75.80807663 -70.65795898 71.73339844 C-66.69480857 67.78114063 -62.7341308 63.82642021 -58.77512932 59.87000656 C-57.27099824 58.36771589 -55.76599073 56.86630217 -54.26007271 55.36580276 C-52.14962358 53.26265056 -50.04236335 51.15635074 -47.93579102 49.04931641 C-47.32001694 48.4371376 -46.70424286 47.8249588 -46.06980896 47.19422913 C-42.66083048 43.7771932 -39.45028815 40.27142295 -36.37994289 36.54587364 C-34.95973551 34.95489392 -33.47170088 33.6494534 -31.8125 32.3125 C-29.38098778 30.31325662 -27.84649791 28.49277217 -26 26 C-25.34 26 -24.68 26 -24 26 C-24 25.34 -24 24.68 -24 24 C-19.69767442 19.23255814 -19.69767442 19.23255814 -16 18 C-15.29904826 16.6843675 -14.63616845 15.3481513 -14 14 C-12.48779297 12.26074219 -12.48779297 12.26074219 -10.7421875 10.546875 C-10.11699219 9.928125 -9.49179687 9.309375 -8.84765625 8.671875 C-8.19667969 8.03765625 -7.54570313 7.4034375 -6.875 6.75 C-6.21628906 6.1003125 -5.55757812 5.450625 -4.87890625 4.78125 C-3.25703357 3.18288273 -1.6306719 1.58938103 0 0 Z M-504.875 269.625 C-505.74318359 270.48375732 -506.61136719 271.34251465 -507.50585938 272.22729492 C-513.42543245 278.17691947 -518.77536026 284.43697286 -524 291 C-525.04849992 292.27791686 -526.09899437 293.55420246 -527.15234375 294.828125 C-534.00140198 303.20862739 -540.19877282 311.86334239 -546 321 C-546.60714844 321.86367188 -547.21429687 322.72734375 -547.83984375 323.6171875 C-549.31128243 326.63933428 -548.90281386 327.80888068 -548 331 C-546.86403145 333.08704345 -546.86403145 333.08704345 -545.375 335.0390625 C-544.8377832 335.77890381 -544.30056641 336.51874512 -543.74707031 337.28100586 C-543.17053711 338.05452393 -542.59400391 338.82804199 -542 339.625 C-541.11586426 340.82878296 -541.11586426 340.82878296 -540.21386719 342.05688477 C-535.66590793 348.2077828 -530.92143183 354.14377106 -526 360 C-524.56214542 361.79138212 -523.12465442 363.58305612 -521.6875 365.375 C-509.53290468 380.2048702 -496.0669739 394.13576521 -481 406 C-479.85735992 406.94157034 -478.71684851 407.885728 -477.578125 408.83203125 C-459.330942 425.14105199 -459.330942 425.14105199 -438 434 C-439.29411849 430.53012326 -440.82113611 427.51586324 -442.80078125 424.390625 C-446.07080669 419.03227175 -448.66104425 413.48872007 -451.1875 407.75 C-452.03417251 405.84852 -452.88180215 403.94746584 -453.73046875 402.046875 C-454.12274658 401.16306152 -454.51502441 400.27924805 -454.91918945 399.36865234 C-455.78252665 397.47660411 -456.71936344 395.61815301 -457.6796875 393.7734375 C-460.47750093 387.89637379 -461.56866568 381.32583198 -463 375 C-463.17708496 374.23316895 -463.35416992 373.46633789 -463.53662109 372.67626953 C-475.15069885 321.69458218 -467.28576088 268.90216301 -440.4375 223.8125 C-439.62799105 222.53975931 -438.81642254 221.26831693 -438 220 C-437.67 219.34 -437.34 218.68 -437 218 C-457.6864691 218 -490.75117832 255.61591587 -504.875 269.625 Z " fill="#A7A8A8" transform="translate(783,157)"/>
<path d="M0 0 C4.49457587 1.46761661 7.75984913 3.97830424 11.3125 7 C11.86228516 7.45117188 12.41207031 7.90234375 12.97851562 8.3671875 C14.36189971 9.52888643 15.68650591 10.75982695 17 12 C17 12.66 17 13.32 17 14 C17.804375 14.3403125 17.804375 14.3403125 18.625 14.6875 C24.11602564 17.72201417 30.99290903 22.97872709 33 29 C33.99 29.33 34.98 29.66 36 30 C37.54296875 31.56640625 37.54296875 31.56640625 39.1875 33.5625 C41.63770249 36.45959477 44.14636339 39.17645186 46.875 41.8125 C51.16853554 46.05677892 54.91907944 50.65201138 58.68261719 55.36621094 C60.11807782 57.1464375 61.57657701 58.90597795 63.0390625 60.6640625 C70.86805139 70.1110897 78.09026796 79.86347378 85 90 C85.43940918 90.64324219 85.87881836 91.28648437 86.33154297 91.94921875 C92.09159692 100.41154715 97.58056615 109.03132035 102.96875 117.734375 C104.2804536 119.84319079 105.62241344 121.93362016 107 124 C106.65756579 127.55830695 105.55972991 130.15518176 103.734375 133.1953125 C103.26322266 133.98389648 102.79207031 134.77248047 102.30664062 135.58496094 C101.79294922 136.42317383 101.27925781 137.26138672 100.75 138.125 C99.94852539 139.44419434 99.94852539 139.44419434 99.13085938 140.79003906 C87.46575737 159.79505682 74.36828406 177.94673356 60 195 C59.5678418 195.5170752 59.13568359 196.03415039 58.69042969 196.56689453 C48.3333958 208.94205377 37.64557683 221.27538058 25.44140625 231.87109375 C23.16303543 233.85783311 20.9528863 235.90473474 18.74926758 237.97363281 C-39.8276399 292.72553786 -118.8032631 324.20977593 -198 331 C-198.81065918 331.07057617 -199.62131836 331.14115234 -200.45654297 331.21386719 C-205.30217409 331.61545644 -210.13979621 331.86741886 -215 332 C-215.78487793 332.02191406 -216.56975586 332.04382813 -217.37841797 332.06640625 C-250.26704312 332.82992628 -284.3139015 330.09577416 -316 321 C-311.70354103 315.04586731 -307.05472156 309.69255907 -301.97265625 304.40625 C-298.98959606 301.67294349 -298.98959606 301.67294349 -298 298 C-297.01 297.67 -296.02 297.34 -295 297 C-293.45681128 295.30618696 -291.98599728 293.54557498 -290.5625 291.75 C-289.41974609 290.31914063 -289.41974609 290.31914063 -288.25390625 288.859375 C-286.76320048 286.96821968 -285.29138048 285.06200816 -283.83984375 283.140625 C-282.92912109 282.08101562 -282.92912109 282.08101562 -282 281 C-281.34 281 -280.68 281 -280 281 C-279.58621094 280.12601563 -279.58621094 280.12601563 -279.1640625 279.234375 C-277.28707168 275.63156041 -275.17097405 272.5777406 -272 270 C-266.42039763 269.14887422 -261.32534474 270.43077506 -255.8203125 271.48828125 C-219.24716392 278.12412954 -181.04915685 268.68294765 -150 249 C-149.34 248.34 -148.68 247.68 -148 247 C-146.71676795 246.17424305 -145.42353526 245.36397689 -144.125 244.5625 C-137.79718437 240.39490485 -132.46633248 235.20316654 -127 230 C-126.30003906 229.37609375 -125.60007812 228.7521875 -124.87890625 228.109375 C-113.94700751 218.01839155 -101.01553784 200.74262942 -98 186 C-97.34 186 -96.68 186 -96 186 C-85.50491366 152.30524913 -81.73237408 120.75997507 -90 86 C-89.00484375 85.30777344 -88.0096875 84.61554688 -86.984375 83.90234375 C-76.15772597 76.33431537 -65.55332382 68.49783752 -55.02026367 60.52709961 C-54.02023315 59.7711853 -54.02023315 59.7711853 -53 59 C-52.29528564 58.43998291 -51.59057129 57.87996582 -50.86450195 57.30297852 C-49 56 -49 56 -47 56 C-43.07758261 65.83219291 -39.65013603 75.57784361 -37.43798828 85.95019531 C-37.15208487 87.28823603 -36.85410106 88.62376856 -36.54248047 89.95605469 C-26.03358369 135.77801887 -37.98965744 185.76811818 -60.37109375 226.06640625 C-61.6420551 228.35535582 -62.85497501 230.64665717 -64 233 C-33.91851032 216.79127339 -5.8586856 193.31138082 16 167 C16.66 166.2059375 17.32 165.411875 18 164.59375 C19.91217786 162.27181974 21.80994596 159.93900944 23.70068359 157.59960938 C25.10016989 155.87667923 26.51285044 154.16504248 27.92578125 152.453125 C31.01756988 148.68616351 34.03197679 144.86510429 37 141 C37.48726562 140.37061523 37.97453125 139.74123047 38.4765625 139.09277344 C39.85771381 137.27482359 41.18486642 135.42857479 42.5 133.5625 C42.91636719 133.02004639 43.33273437 132.47759277 43.76171875 131.91870117 C45.06526176 130.13557042 45.06526176 130.13557042 46 127 C45.22264818 123.97185433 43.72338573 121.58602068 42 119 C41.58878906 118.37971924 41.17757813 117.75943848 40.75390625 117.12036133 C39.46033755 115.25438848 38.11791991 113.43707465 36.75 111.625 C36.26547363 110.9743457 35.78094727 110.32369141 35.28173828 109.65332031 C31.30501828 104.33963362 27.20364715 99.13594117 23 94 C22.23558594 93.04996094 21.47117187 92.09992188 20.68359375 91.12109375 C19.90113281 90.15300781 19.11867188 89.18492187 18.3125 88.1875 C17.60738281 87.31480469 16.90226562 86.44210937 16.17578125 85.54296875 C13.89774094 82.88048357 11.49912423 80.45729789 9 78 C7.57923285 76.5587652 6.16013454 75.11588443 4.7421875 73.671875 C-3.52725585 65.29209319 -11.70063209 57.22969151 -21 50 C-22.06646227 49.1115053 -23.12874627 48.217979 -24.1875 47.3203125 C-24.72898682 46.86148682 -25.27047363 46.40266113 -25.82836914 45.92993164 C-27.34312727 44.64269749 -28.85713553 43.35458109 -30.37109375 42.06640625 C-32.5557914 40.34916248 -34.46604841 39.09624856 -37 38 C-37 37.34 -37 36.68 -37 36 C-36.34 36 -35.68 36 -35 36 C-34.67 35.01 -34.34 34.02 -34 33 C-31.48889361 30.27365592 -28.87732824 27.90032919 -26 25.5625 C-23.45282276 23.38678611 -21.49102529 21.21523895 -19.41796875 18.60546875 C-17.13490675 16.02051425 -14.47042409 13.89073451 -11.84765625 11.66015625 C-9.60565189 9.6456703 -7.86483697 7.36212683 -6 5 C-4.05788216 3.24629658 -2.04965311 1.63040588 0 0 Z " fill="#A7A7A8" transform="translate(746,358)"/>
<path d="M0 0 C17.99218468 16.30307539 27.3651678 35.66227247 29.37548828 59.71679688 C30.16787088 83.12810107 20.69912025 105.77219167 5.11767578 122.97070312 C-10.23148896 139.08834395 -30.67229909 147.88014891 -52.78808594 148.47460938 C-79.97905368 148.71309395 -100.55548644 139.92271166 -119.99169922 120.91210938 C-135.15744374 104.91045768 -142.34130775 82.07350123 -142.06591797 60.28710938 C-141.2987434 48.57026147 -139.1552388 37.55374223 -133.85107422 27.00585938 C-133.40892578 26.08546875 -132.96677734 25.16507812 -132.51123047 24.21679688 C-122.22106878 3.97852873 -104.83485062 -9.44090988 -83.81591797 -17.03320312 C-55.23742205 -26.29579864 -22.68773195 -19.61800772 0 0 Z " fill="#A7A8A8" transform="translate(569.85107421875,420.994140625)"/>
<path d="M0 0 C4.87419602 1.18162328 7.05246374 4.10914645 10.12109375 7.80078125 C11.9437734 9.934188 13.85603295 11.86578227 15.875 13.8125 C20.16853554 18.05677892 23.91907944 22.65201138 27.68261719 27.36621094 C29.11807782 29.1464375 30.57657701 30.90597795 32.0390625 32.6640625 C39.86805139 42.1110897 47.09026796 51.86347378 54 62 C54.43940918 62.64324219 54.87881836 63.28648437 55.33154297 63.94921875 C61.09159692 72.41154715 66.58056615 81.03132035 71.96875 89.734375 C73.2804536 91.84319079 74.62241344 93.93362016 76 96 C75.65756579 99.55830695 74.55972991 102.15518176 72.734375 105.1953125 C72.26322266 105.98389648 71.79207031 106.77248047 71.30664062 107.58496094 C70.79294922 108.42317383 70.27925781 109.26138672 69.75 110.125 C69.21568359 111.00446289 68.68136719 111.88392578 68.13085938 112.79003906 C60.46276941 125.28304477 52.10708928 137.29292935 43.375 149.0625 C42.62959961 150.07231934 42.62959961 150.07231934 41.86914062 151.10253906 C39.72767792 153.94643717 37.98807082 156.00795279 35 158 C36.72346335 154.14588141 39.15842667 150.83829723 41.625 147.4375 C42.07230469 146.81472168 42.51960937 146.19194336 42.98046875 145.55029297 C44.99483412 142.75041119 47.02564237 139.96557007 49.0859375 137.19921875 C53.93194146 130.68183792 58.2827733 123.93755917 62.51953125 117.015625 C64.11554655 114.40840345 65.75372293 111.84046098 67.44921875 109.296875 C67.82755859 108.7179248 68.20589844 108.13897461 68.59570312 107.54248047 C69.62035311 105.97755217 70.65930284 104.42201324 71.69921875 102.8671875 C73.31646168 99.30245382 72.90922869 97.76281247 72 94 C70.81163106 91.51137109 70.81163106 91.51137109 69.2265625 89.1640625 C68.65446045 88.27251465 68.0823584 87.3809668 67.49291992 86.46240234 C66.87650635 85.52605957 66.26009277 84.5897168 65.625 83.625 C64.67814331 82.16441162 64.67814331 82.16441162 63.7121582 80.67431641 C55.55096117 68.14160122 47.12859061 55.8516956 38 44 C37.36626465 43.16903809 37.36626465 43.16903809 36.71972656 42.32128906 C31.24044061 35.1449854 25.61305324 28.24475817 19.35205078 21.73046875 C16 18.20277002 16 18.20277002 16 16 C15.34 16 14.68 16 14 16 C12.51953125 14.49609375 12.51953125 14.49609375 10.8125 12.4375 C7.79944598 8.88007067 4.63888173 5.58344853 1.28515625 2.34765625 C0 1 0 1 0 0 Z " fill="#979696" transform="translate(777,386)"/>
<path d="M0 0 C0.66 0.33 1.32 0.66 2 1 C2 1.66 2 2.32 2 3 C2.58247498 3.2578125 3.16494995 3.515625 3.76507568 3.78125 C6.19063451 5.1039569 7.80514441 6.55128454 9.75878906 8.5 C10.83945648 9.57121094 10.83945648 9.57121094 11.94195557 10.6640625 C12.70876648 11.43492187 13.47557739 12.20578125 14.265625 13 C15.05902283 13.79148438 15.85242065 14.58296875 16.66986084 15.3984375 C18.34324054 17.07045737 20.01410181 18.74500097 21.68261719 20.421875 C24.24713597 22.99712398 26.82216989 25.56151052 29.3984375 28.125 C31.02147527 29.74935884 32.64389281 31.37433769 34.265625 33 C35.04053284 33.77085937 35.81544067 34.54171875 36.61383057 35.3359375 C37.67558502 36.40714844 37.67558502 36.40714844 38.75878906 37.5 C39.38626038 38.1290625 40.01373169 38.758125 40.66021729 39.40625 C42 41 42 41 42 43 C42.58265625 43.25910156 43.1653125 43.51820313 43.765625 43.78515625 C46.16343838 45.08886248 47.81756794 46.51745533 49.75 48.4375 C50.36359375 49.03433594 50.9771875 49.63117188 51.609375 50.24609375 C53 52 53 52 53 55 C52.34 55 51.68 55 51 55 C50.67 55.99 50.34 56.98 50 58 C48.515 58.495 48.515 58.495 47 59 C47.4640625 58.13375 47.4640625 58.13375 47.9375 57.25 C48.92583364 55.15705816 49.5168613 53.25464725 50 51 C49.43925781 50.76539063 48.87851562 50.53078125 48.30078125 50.2890625 C41.2206254 46.32225192 35.74852653 38.78648066 30.51953125 32.67578125 C28.54730542 30.50075585 26.33024028 28.77834127 24 27 C22.31815504 25.34676866 20.65731028 23.67761308 19 22 C17.52551456 20.52396501 16.05017346 19.04878455 14.57421875 17.57421875 C7.78710938 10.78710938 7.78710938 10.78710938 1 4 C-2.9683549 6.59157871 -6.21323027 9.06165859 -9.26318359 12.69848633 C-12.90264556 16.9367515 -16.76257732 20.89076885 -20.7265625 24.82421875 C-21.43726898 25.53351028 -22.14797546 26.24280182 -22.88021851 26.97358704 C-25.12611477 29.21394485 -27.37547627 31.45078512 -29.625 33.6875 C-31.14085837 35.1983336 -32.65648534 36.7093994 -34.171875 38.22070312 C-37.55592186 41.59486164 -40.94180627 44.96715633 -44.33111572 48.33602905 C-45.82381061 49.82432933 -47.30776678 51.3213822 -48.79052734 52.81958008 C-51.07014982 55.06922741 -53.46562837 57.04491332 -56 59 C-54.34020506 54.62707873 -51.04146379 51.86136249 -47.75 48.6875 C-42.46325248 43.52503567 -42.46325248 43.52503567 -37.5625 38 C-35.65763554 35.76991478 -34.04816228 34.11947946 -31.8125 32.3125 C-29.38098778 30.31325662 -27.84649791 28.49277217 -26 26 C-25.34 26 -24.68 26 -24 26 C-24 25.34 -24 24.68 -24 24 C-19.69767442 19.23255814 -19.69767442 19.23255814 -16 18 C-15.29904826 16.6843675 -14.63616845 15.3481513 -14 14 C-12.48779297 12.26074219 -12.48779297 12.26074219 -10.7421875 10.546875 C-10.11699219 9.928125 -9.49179687 9.309375 -8.84765625 8.671875 C-8.19667969 8.03765625 -7.54570313 7.4034375 -6.875 6.75 C-6.21628906 6.1003125 -5.55757812 5.450625 -4.87890625 4.78125 C-3.25703357 3.18288273 -1.6306719 1.58938103 0 0 Z " fill="#9C9B9B" transform="translate(783,157)"/>
<path d="M0 0 C0.99 0.495 0.99 0.495 2 1 C-10.01171875 13.01171875 -10.01171875 13.01171875 -12.11694336 15.11669922 C-13.59418337 16.59413075 -15.07067172 18.07231385 -16.546875 19.55078125 C-18.56940779 21.57009345 -20.59787672 23.58300216 -22.62890625 25.59375 C-23.94014988 26.8957873 -25.25134689 28.19787155 -26.5625 29.5 C-27.22185547 30.15097656 -27.88121094 30.80195312 -28.56054688 31.47265625 C-31.94489172 34.83999433 -35.05016838 38.23759903 -38 42 C-38.804375 42.639375 -39.60875 43.27875 -40.4375 43.9375 C-43.41501379 46.33403549 -45.58578299 49.04258417 -48 52 C-49.65378962 53.68139431 -51.32194915 55.34310229 -53 57 C-54.35274636 58.351192 -55.70463152 59.70324644 -57.0559082 61.0559082 C-68.37060547 72.37060547 -79.68530273 83.68530273 -91 95 C-91.66 94.34 -92.32 93.68 -93 93 C-62 62 -31 31 0 0 Z " fill="#9D9D9D" transform="translate(268,689)"/>
<path d="M0 0 C0.99 0.495 0.99 0.495 2 1 C-7.84308352 11.69373302 -17.94653727 22.08252397 -28.2421875 32.33984375 C-29.74697597 33.84276072 -31.25153907 35.34590339 -32.75588989 36.84925842 C-36.66287107 40.75247198 -40.57284827 44.65267009 -44.48352051 48.55218506 C-48.49478246 52.55310712 -52.50311625 56.55696057 -56.51171875 60.56054688 C-64.33832973 68.37652242 -72.16811821 76.18930623 -80 84 C-80.99 83.67 -81.98 83.34 -83 83 C-81.50260417 81.79557292 -80.00520833 80.59114583 -78.5078125 79.38671875 C-76.74707893 77.87729455 -76.74707893 77.87729455 -75 75 C-74.34 75 -73.68 75 -73 75 C-73 74.34 -73 73.68 -73 73 C-71.90323473 71.8346869 -70.79450536 70.67892632 -69.63671875 69.57421875 C-68.38651837 68.37175872 -67.16497738 67.13943176 -65.95703125 65.89453125 C-65.24933594 65.16621094 -64.54164063 64.43789063 -63.8125 63.6875 C-63.13832031 62.99011719 -62.46414063 62.29273438 -61.76953125 61.57421875 C-60 60 -60 60 -58 60 C-57.773125 59.443125 -57.54625 58.88625 -57.3125 58.3125 C-55.62992387 55.3479611 -53.43848577 53.38298588 -51 51 C-50.16264816 50.16264816 -49.32529633 49.32529633 -48.46257019 48.46257019 C-32.30838013 32.30838013 -16.15419006 16.15419006 0 0 Z " fill="#9F9E9F" transform="translate(724,217)"/>
<path d="M0 0 C2 1 2 1 3.0078125 3.96484375 C3.38323935 5.28820637 3.75537867 6.61250414 4.125 7.9375 C10.09539514 28.00011775 19.69771689 45.98711021 33.69628906 61.54052734 C34.90068699 62.88882151 36.07302499 64.26557129 37.2421875 65.64453125 C45.71203079 75.49499002 55.52202146 83.85941103 67 90 C66.6875 91.9375 66.6875 91.9375 66 94 C64.515 94.495 64.515 94.495 63 95 C62.94585937 94.26136719 62.89171875 93.52273438 62.8359375 92.76171875 C61.69447595 88.9906285 59.84917498 88.00003079 56.625 85.8125 C55.64789063 85.13832031 54.67078125 84.46414063 53.6640625 83.76953125 C52.78492188 83.18558594 51.90578125 82.60164062 51 82 C50.01 81.34 49.02 80.68 48 80 C48 79.34 48 78.68 48 78 C47.18402344 77.66935547 47.18402344 77.66935547 46.3515625 77.33203125 C23.13179287 64.1793046 6.89465473 29.42276543 0 5 C-0.1875 1.9375 -0.1875 1.9375 0 0 Z " fill="#999998" transform="translate(368,520)"/>
<path d="M0 0 C1.9375 0.8125 1.9375 0.8125 4 2 C4.33 2.99 4.66 3.98 5 5 C6.32520503 5.68268138 7.66005765 6.3467185 9 7 C10.41844481 8.33013696 11.78997523 9.71115458 13.125 11.125 C17.77777242 15.87612371 22.74622969 19.93727915 28 24 C29.15592468 24.91021926 30.31081408 25.82175432 31.46484375 26.734375 C40.2862518 33.70278274 49.19749874 40.50421566 58.375 47 C59.48210327 47.78600586 59.48210327 47.78600586 60.61157227 48.58789062 C65.33635905 51.91341164 70.11481131 54.98940159 75.21484375 57.71875 C77.32344777 59.23214632 78.0368578 60.61987897 79 63 C78.01 63 77.02 63 76 63 C76 62.01 76 61.02 76 60 C74.515 60.495 74.515 60.495 73 61 C72.45472656 60.41734375 71.90945313 59.8346875 71.34765625 59.234375 C68.85964966 56.86642197 66.32299685 55.1096278 63.4375 53.25 C48.14755596 43.21713115 33.83723726 31.93184229 20 20 C19.28328125 19.38511719 18.5665625 18.77023437 17.828125 18.13671875 C15.86969822 16.44130383 13.93192682 14.72556999 12 13 C11.50516113 12.56091309 11.01032227 12.12182617 10.50048828 11.66943359 C8.82795718 10.18169618 7.16326812 8.68558136 5.5 7.1875 C4.95851318 6.70667969 4.41702637 6.22585938 3.85913086 5.73046875 C2.5341332 4.52821536 1.26195619 3.26826597 0 2 C0 1.34 0 0.68 0 0 Z " fill="#9A9998" transform="translate(243,577)"/>
<path d="M0 0 C3.84809584 1.28269861 5.20351499 3.60109012 7.5 6.75 C22.13547649 26.27208594 38.78709862 44.90414891 58 60 C59.97450071 61.5649023 61.94653896 63.13282272 63.91674805 64.703125 C65.23346484 65.75178962 66.55252951 66.79751508 67.87426758 67.83984375 C71.10747791 70.4061696 74.15319574 72.99622909 77 76 C72.43299396 74.50051396 69.00837549 71.91571991 65.3125 68.9375 C64.69745605 68.44797852 64.08241211 67.95845703 63.44873047 67.45410156 C58.98759686 63.87264447 54.67982599 60.14791201 50.4765625 56.265625 C48.41407126 54.37880336 46.32211842 52.54559182 44.20703125 50.71875 C40.00198249 47.04742651 36.00654506 43.1988537 32.0625 39.25 C31.36302246 38.5497168 30.66354492 37.84943359 29.94287109 37.12792969 C25.36506419 32.49591611 21.10870734 27.77713675 17.0859375 22.65234375 C15.55933605 20.71121568 14.01487465 18.81921419 12.4140625 16.94140625 C7.79502156 11.52272126 3.56404234 6.17767338 0 0 Z " fill="#989797" transform="translate(244,502)"/>
<path d="M0 0 C0 4.31773331 -2.57769095 6.36000807 -5.3125 9.4375 C-5.85648437 10.06076172 -6.40046875 10.68402344 -6.9609375 11.32617188 C-11.28570306 16.2580101 -15.72654363 21.07897135 -20.17578125 25.8984375 C-23.40476578 29.42326839 -26.55715664 33.01249475 -29.6875 36.625 C-30.21730469 37.22957031 -30.74710937 37.83414063 -31.29296875 38.45703125 C-34.08146088 41.31964019 -34.08146088 41.31964019 -35 45 C-24.69937811 47.21959007 -14.42250537 49.4189413 -4 51 C-4 51.33 -4 51.66 -4 52 C-11.63606293 52.36065924 -18.50744289 51.33041607 -25.9375 49.625 C-27.47760742 49.29242187 -27.47760742 49.29242187 -29.04882812 48.953125 C-36.59342288 47.27105142 -36.59342288 47.27105142 -40 45 C-38.80503906 43.7315625 -38.80503906 43.7315625 -37.5859375 42.4375 C-30.06146248 34.46026622 -30.06146248 34.46026622 -23.37890625 25.78125 C-21.46072021 23.30336662 -19.22791361 21.20181799 -17 19 C-15.23791033 17.11539818 -13.48786238 15.21946575 -11.75 13.3125 C-10.44289063 11.88357422 -10.44289063 11.88357422 -9.109375 10.42578125 C-6.99506137 8.1979846 -6.99506137 8.1979846 -6 6 C-5.34 6 -4.68 6 -4 6 C-3.566875 5.071875 -3.566875 5.071875 -3.125 4.125 C-2 2 -2 2 0 0 Z " fill="#9A9999" transform="translate(470,633)"/>
<path d="M0 0 C4.83475286 1.51482876 7.9716625 4.26656285 11.6875 7.5625 C12.30326904 8.0997168 12.91903809 8.63693359 13.5534668 9.19042969 C17.97220659 13.05661139 22.35250074 16.96672199 26.6953125 20.91796875 C28.23814465 22.31174762 29.79572428 23.6893651 31.3671875 25.05078125 C35.58182641 28.70488737 39.40357787 32.42507377 43 36.6875 C44.55067381 38.48046659 46.12409575 40.21465837 47.75 41.9375 C54.6791239 49.28239375 60.99484301 56.88240947 67 65 C66.67 65.66 66.34 66.32 66 67 C60.18817917 60.29405289 54.48471362 53.48431274 49.0390625 46.4765625 C46.83297503 43.79713825 44.4792648 41.43119041 42 39 C40.57905327 37.55894226 39.15997414 36.11604192 37.7421875 34.671875 C29.47567851 26.2950667 21.31211663 18.20983576 12 11 C9.7568568 9.18337949 7.53348742 7.3435988 5.3125 5.5 C4.29800781 4.6646875 3.28351562 3.829375 2.23828125 2.96875 C1.49964844 2.3190625 0.76101563 1.669375 0 1 C0 0.67 0 0.34 0 0 Z " fill="#999998" transform="translate(713,397)"/>
<path d="M0 0 C0.99 0.495 0.99 0.495 2 1 C0.948125 2.0209375 0.948125 2.0209375 -0.125 3.0625 C-2.19100793 5.11686845 -4.07797582 7.25777691 -5.9375 9.5 C-8.70058057 12.77318775 -11.67143912 15.30882312 -15 18 C-16.6792342 19.65400364 -18.34430993 21.32242856 -20 23 C-34 37 -48 51 -62 65 C-62.66 64.34 -63.32 63.68 -64 63 C-63.42649811 62.49755264 -62.85299622 61.99510529 -62.26211548 61.47743225 C-54.97342261 55.01320046 -48.08128738 48.21098525 -41.2109375 41.30859375 C-40.01475713 40.11054327 -38.81835205 38.9127171 -37.62173462 37.71510315 C-34.50592472 34.59551472 -31.39313221 31.472933 -28.28100586 28.34967041 C-25.09153439 25.14988331 -21.89915289 21.95300227 -18.70703125 18.75585938 C-12.46853809 12.50671139 -6.23323663 6.25439113 0 0 Z " fill="#999898" transform="translate(282,762)"/>
<path d="M0 0 C0.495 0.99 0.495 0.99 1 2 C-0.37391236 3.68838564 -1.74919161 5.37565901 -3.125 7.0625 C-4.27355469 8.47208984 -4.27355469 8.47208984 -5.4453125 9.91015625 C-7.22083294 12.07721245 -9.04077041 14.19792053 -10.8828125 16.30859375 C-14.38550977 20.38317135 -17.57453411 24.66808917 -20.75 29 C-21.35835693 29.82725586 -21.96671387 30.65451172 -22.59350586 31.50683594 C-27.18386322 37.78996684 -31.56616791 44.18634429 -35.81640625 50.703125 C-38.13212279 54.19948414 -40.54517331 57.60034546 -43 61 C-43.33 60.34 -43.66 59.68 -44 59 C-33.59191039 38.38474915 -16.31135046 16.31135046 0 0 Z " fill="#989797" transform="translate(229,405)"/>
<path d="M0 0 C0.495 0.99 0.495 0.99 1 2 C-8.82777291 16.50248791 -19.87488365 29.47995066 -34 40 C-34.66 40 -35.32 40 -36 40 C-36 39.34 -36 38.68 -36 38 C-34.48483244 36.67308973 -32.90914348 35.41516168 -31.3125 34.1875 C-18.94226974 24.22787872 -9.19917772 12.911999 0 0 Z " fill="#9D9C9C" transform="translate(639,564)"/>
<path d="M0 0 C0 0.99 0 1.98 0 3 C-1.90287996 4.58004225 -3.76459684 5.94194811 -5.8125 7.3125 C-7.08708103 8.19366069 -8.36044972 9.07657676 -9.6328125 9.9609375 C-10.67550293 10.68168457 -10.67550293 10.68168457 -11.73925781 11.41699219 C-15.93754406 14.35669932 -20.06030164 17.39920972 -24.1875 20.4375 C-25.01290283 21.04053955 -25.83830566 21.6435791 -26.6887207 22.26489258 C-27.85407349 23.12183716 -27.85407349 23.12183716 -29.04296875 23.99609375 C-29.73414795 24.50325928 -30.42532715 25.0104248 -31.13745117 25.53295898 C-32.91670044 26.9343889 -34.5177493 28.2863455 -36 30 C-36.14702267 32.29844789 -36.14702267 32.29844789 -35.6875 34.6875 C-35.56761719 35.49574219 -35.44773437 36.30398438 -35.32421875 37.13671875 C-35.21722656 37.75160156 -35.11023438 38.36648438 -35 39 C-37.3129482 36.6870518 -37.49580975 35.52095125 -38.125 32.375 C-38.29257812 31.55773437 -38.46015625 30.74046875 -38.6328125 29.8984375 C-38.75398437 29.27195312 -38.87515625 28.64546875 -39 28 C-38.00484375 27.30777344 -37.0096875 26.61554688 -35.984375 25.90234375 C-26.6602252 19.38391025 -17.49279133 12.68763288 -8.42675781 5.81420898 C-7.6169043 5.20134033 -6.80705078 4.58847168 -5.97265625 3.95703125 C-4.89383179 3.13682495 -4.89383179 3.13682495 -3.79321289 2.30004883 C-2 1 -2 1 0 0 Z " fill="#9B9B9B" transform="translate(695,416)"/>
<path d="M0 0 C15.26984338 1.98192657 29.1736358 13.71093273 39 25 C41.46146717 28.25460659 43.77812907 31.57789011 46 35 C45.505 35.99 45.505 35.99 45 37 C44.34773437 36.11957031 43.69546875 35.23914063 43.0234375 34.33203125 C42.14099757 33.1585739 41.25816393 31.98541255 40.375 30.8125 C39.73498047 29.9452832 39.73498047 29.9452832 39.08203125 29.06054688 C36.07234234 25.08506227 32.90642125 22.09688472 29 19 C28.236875 18.195625 27.47375 17.39125 26.6875 16.5625 C20.75680232 10.90764872 13.95730524 7.31485075 6.48046875 4.078125 C4.27778515 3.12073811 2.13650175 2.09564192 0 1 C0 0.67 0 0.34 0 0 Z " fill="#9B9A9A" transform="translate(541,406)"/>
<path d="M0 0 C0.66 0.33 1.32 0.66 2 1 C-29.70476603 35.16473137 -29.70476603 35.16473137 -42 44 C-42 41 -42 41 -40.09375 38.984375 C-39.2378125 38.24703125 -38.381875 37.5096875 -37.5 36.75 C-36.57703125 35.94433594 -35.6540625 35.13867188 -34.703125 34.30859375 C-33.15362566 32.98524966 -31.60253896 31.66374796 -30.046875 30.34765625 C-20.85787409 22.4970533 -12.10885899 13.80500106 -4.33203125 4.55078125 C-2.95880466 2.95203945 -1.50744542 1.47187149 0 0 Z " fill="#999998" transform="translate(765,522)"/>
<path d="M0 0 C2.84303661 1.29204488 4.89759844 2.64901783 7.09375 4.86328125 C7.64933594 5.42080078 8.20492187 5.97832031 8.77734375 6.55273438 C9.34582031 7.13345703 9.91429687 7.71417969 10.5 8.3125 C11.06847656 8.88162109 11.63695312 9.45074219 12.22265625 10.03710938 C15.37037671 13.21769467 18.21107295 16.49669614 21 20 C22.64379965 21.68922416 24.31420564 23.35268311 26 25 C27.25787212 26.25514724 28.5142683 27.51177461 29.76953125 28.76953125 C30.43017578 29.43017578 31.09082031 30.09082031 31.77148438 30.77148438 C34.84765625 33.84765625 37.92382812 36.92382812 41 40 C38 40 38 40 36.50032043 38.87454224 C35.97403549 38.34762787 35.44775055 37.8207135 34.90551758 37.27783203 C34.00492363 36.38658127 34.00492363 36.38658127 33.08613586 35.47732544 C32.44540634 34.82738617 31.80467682 34.1774469 31.14453125 33.5078125 C30.48289474 32.8466745 29.82125824 32.1855365 29.13957214 31.50436401 C27.74154289 30.10399238 26.34721045 28.6999219 24.95629883 27.29248047 C22.81944653 25.13202327 20.66957919 22.98520056 18.51757812 20.83984375 C17.16326792 19.47995753 15.80972571 18.11930593 14.45703125 16.7578125 C13.81022903 16.11192169 13.16342682 15.46603088 12.49702454 14.80056763 C11.90608505 14.20009613 11.31514557 13.59962463 10.70629883 12.98095703 C10.18240067 12.45245148 9.6585025 11.92394592 9.11872864 11.37942505 C8 10 8 10 8 8 C7.34 8 6.68 8 6 8 C4.4921875 6.25 4.4921875 6.25 2.875 4 C2.33617187 3.2575 1.79734375 2.515 1.2421875 1.75 C0.62730469 0.88375 0.62730469 0.88375 0 0 Z " fill="#9A9999" transform="translate(177,784)"/>
<path d="M0 0 C4.49457587 1.46761661 7.75984913 3.97830424 11.3125 7 C12.13717773 7.67675781 12.13717773 7.67675781 12.97851562 8.3671875 C14.36189971 9.52888643 15.68650591 10.75982695 17 12 C17 12.66 17 13.32 17 14 C17.53625 14.226875 18.0725 14.45375 18.625 14.6875 C24.27219971 17.80832089 27.71904023 21.5737973 31 27 C24.96042056 24.44479331 20.54523809 19.56482963 16 15 C13.83469367 12.85101251 11.64356941 10.73206284 9.4375 8.625 C8.87353516 8.06683594 8.30957031 7.50867188 7.72851562 6.93359375 C5.89573443 5.14301233 5.89573443 5.14301233 3 3 C-0.6451444 3.44216121 -2.26104556 4.92995204 -4.75 7.5625 C-5.36359375 8.20316406 -5.9771875 8.84382813 -6.609375 9.50390625 C-7.06828125 9.99761719 -7.5271875 10.49132812 -8 11 C-8.66 10.67 -9.32 10.34 -10 10 C-7.02911382 6.00073014 -3.87051275 3.07881696 0 0 Z " fill="#9A9999" transform="translate(746,358)"/>
<path d="M0 0 C0.66 0.33 1.32 0.66 2 1 C-1.35765597 5.24644725 -4.7775838 8.56928684 -9 12 C-11.47720235 14.35924033 -13.73701792 16.65540279 -15.8125 19.375 C-18.84327464 23.01192957 -22.38629457 25.956418 -26 29 C-26 26 -26 26 -23.61328125 23.27270508 C-22.52068881 22.18058824 -21.4198246 21.09670796 -20.3125 20.01953125 C-19.44685425 19.16025276 -19.44685425 19.16025276 -18.5637207 18.28361511 C-16.71605624 16.45276435 -14.85824193 14.63260815 -13 12.8125 C-11.74671407 11.57425738 -10.49410099 10.33533332 -9.2421875 9.09570312 C-6.16921472 6.05583532 -3.08709758 3.02551984 0 0 Z " fill="#9B9999" transform="translate(820,224)"/>
<path d="M0 0 C0.66 0.33 1.32 0.66 2 1 C-3.21245308 6.30858439 -8.45096125 11.49127541 -14.10546875 16.328125 C-17.21537263 19.07253502 -20.10923774 22.02793506 -23 25 C-23 22 -23 22 -21.53466797 20.17822266 C-20.86064941 19.5135498 -20.18663086 18.84887695 -19.4921875 18.1640625 C-18.75226563 17.42929687 -18.01234375 16.69453125 -17.25 15.9375 C-16.46625 15.174375 -15.6825 14.41125 -14.875 13.625 C-14.11445313 12.86960937 -13.35390625 12.11421875 -12.5703125 11.3359375 C-8.52780357 7.34918731 -4.42951511 3.55210317 0 0 Z " fill="#999898" transform="translate(264,369)"/>
<path d="M0 0 C0.66 0 1.32 0 2 0 C0.61314777 3.1195572 -1.00189491 5.25855799 -3.40625 7.671875 C-4.06753906 8.33574219 -4.72882813 8.99960937 -5.41015625 9.68359375 C-6.09980469 10.36550781 -6.78945313 11.04742188 -7.5 11.75 C-8.18964844 12.44738281 -8.87929688 13.14476562 -9.58984375 13.86328125 C-10.25113281 14.52199219 -10.91242188 15.18070313 -11.59375 15.859375 C-12.19896484 16.46233398 -12.80417969 17.06529297 -13.42773438 17.68652344 C-15 19 -15 19 -17 19 C-15.55922954 15.63820226 -13.75249979 13.40843732 -11 11 C-10.34 11 -9.68 11 -9 11 C-8.7525 10.4225 -8.505 9.845 -8.25 9.25 C-6.81700012 6.67060021 -5.21575324 4.93878408 -3 3 C-2.34 3 -1.68 3 -1 3 C-0.67 2.01 -0.34 1.02 0 0 Z " fill="#9E9D9C" transform="translate(344,700)"/>
<path d="M0 0 C0.99 0.33 1.98 0.66 3 1 C-4.74927392 7.1230352 -12.53542123 12.87714872 -21 18 C-21 17.01 -21 16.02 -21 15 C-19.6105957 13.71313477 -19.6105957 13.71313477 -17.67578125 12.44140625 C-16.62680664 11.73854492 -16.62680664 11.73854492 -15.55664062 11.02148438 C-14.81607422 10.54001953 -14.07550781 10.05855469 -13.3125 9.5625 C-11.86992602 8.60722983 -10.42849391 7.65023276 -8.98828125 6.69140625 C-8.29943848 6.23781738 -7.6105957 5.78422852 -6.90087891 5.31689453 C-4.78403378 3.89683143 -4.78403378 3.89683143 -2.16796875 1.58984375 C-1.45253906 1.06519531 -0.73710938 0.54054688 0 0 Z " fill="#9B9B9A" transform="translate(718,567)"/>
<path d="M0 0 C1.39442282 4.18326847 -0.39851665 6.57686007 -2.25 10.3125 C-2.56324219 10.96412109 -2.87648438 11.61574219 -3.19921875 12.28710938 C-4.12093553 14.19747257 -5.05927711 16.0989401 -6 18 C-6.53753906 19.10988281 -7.07507813 20.21976563 -7.62890625 21.36328125 C-8.87405409 23.75779632 -9.96935046 25.25944325 -12 27 C-11.38510677 22.78914892 -9.91045424 19.56717651 -7.9375 15.8125 C-5.76710048 12.08952847 -5.76710048 12.08952847 -5 8 C-4.34 8 -3.68 8 -3 8 C-2.690625 6.865625 -2.38125 5.73125 -2.0625 4.5625 C-1 1 -1 1 0 0 Z " fill="#9C9C9C" transform="translate(653,536)"/>
<path d="M0 0 C0.66 0.33 1.32 0.66 2 1 C-6.23954582 8.445983 -14.55578025 15.78722896 -23 23 C-21.32872814 18.6631553 -18.1208016 15.81953524 -14.875 12.625 C-14.29403564 12.04790283 -13.71307129 11.47080566 -13.11450195 10.8762207 C-8.99391299 6.83798632 -4.76476316 3.26993551 0 0 Z " fill="#969594" transform="translate(422,365)"/>
<path d="M0 0 C0.66 0 1.32 0 2 0 C0.67879172 2.93230193 -0.74638197 4.98664899 -3.0390625 7.234375 C-3.90917969 8.09482422 -3.90917969 8.09482422 -4.796875 8.97265625 C-5.40015625 9.55917969 -6.0034375 10.14570312 -6.625 10.75 C-7.23601562 11.35199219 -7.84703125 11.95398438 -8.4765625 12.57421875 C-9.97988624 14.05405305 -11.48934856 15.52764676 -13 17 C-13.99 16.67 -14.98 16.34 -16 16 C-14.37660195 14.29115995 -12.70680947 12.62553283 -11 11 C-10.34 11 -9.68 11 -9 11 C-8.7525 10.4225 -8.505 9.845 -8.25 9.25 C-6.81700012 6.67060021 -5.21575324 4.93878408 -3 3 C-2.34 3 -1.68 3 -1 3 C-0.67 2.01 -0.34 1.02 0 0 Z " fill="#9E9D9C" transform="translate(384,660)"/>
<path d="M0 0 C9.36129028 3.41919468 16.79776351 10.302268 24 17 C19.97920017 17 18.9549082 15.53811513 15.9375 12.9375 C11.39079239 9.10007878 6.7372771 5.62908819 1.80078125 2.3125 C1.20652344 1.879375 0.61226562 1.44625 0 1 C0 0.67 0 0.34 0 0 Z " fill="#9A9998" transform="translate(592,357)"/>
<path d="M0 0 C-1.612328 4.03082 -4.46234596 6.75944137 -7.5 9.75 C-7.99886719 10.25660156 -8.49773437 10.76320313 -9.01171875 11.28515625 C-12.74658861 15 -12.74658861 15 -15 15 C-13.387672 10.96918 -10.53765404 8.24055863 -7.5 5.25 C-7.00113281 4.74339844 -6.50226563 4.23679687 -5.98828125 3.71484375 C-2.25341139 0 -2.25341139 0 0 0 Z " fill="#9E9E9E" transform="translate(313,645)"/>
<path d="M0 0 C3.80668295 1.53481294 5.8962489 3.86522081 8.5625 6.9375 C11.56729288 10.41254808 11.56729288 10.41254808 14.77734375 13.69140625 C16 15 16 15 16 17 C13.10820032 15.69985934 11.13291606 14.35656066 8.984375 12.03125 C8.45585937 11.46019531 7.92734375 10.88914062 7.3828125 10.30078125 C6.84398437 9.70652344 6.30515625 9.11226562 5.75 8.5 C5.19570312 7.90574219 4.64140625 7.31148437 4.0703125 6.69921875 C0 2.25796644 0 2.25796644 0 0 Z " fill="#9A9999" transform="translate(227,560)"/>
<path d="M0 0 C2.89179968 1.30014066 4.86708394 2.64343934 7.015625 4.96875 C7.80839844 5.82533203 7.80839844 5.82533203 8.6171875 6.69921875 C9.15601563 7.29347656 9.69484375 7.88773437 10.25 8.5 C10.80429687 9.09425781 11.35859375 9.68851562 11.9296875 10.30078125 C16 14.74203356 16 14.74203356 16 17 C15.34 17 14.68 17 14 17 C12.60868258 15.40288354 11.28482665 13.74647316 10 12.0625 C7.45663229 8.48783076 7.45663229 8.48783076 4 6 C4 5.34 4 4.68 4 4 C2.68 3.34 1.36 2.68 0 2 C0 1.34 0 0.68 0 0 Z " fill="#999998" transform="translate(616,375)"/>
<path d="M0 0 C-1.58667578 3.90285767 -4.13350481 6.33520982 -7.125 9.25 C-8.03507813 10.14203125 -8.94515625 11.0340625 -9.8828125 11.953125 C-10.58148437 12.62859375 -11.28015625 13.3040625 -12 14 C-12.99 13.67 -13.98 13.34 -15 13 C-13.50260417 11.79557292 -12.00520833 10.59114583 -10.5078125 9.38671875 C-8.74707893 7.87729455 -8.74707893 7.87729455 -7 5 C-6.34 5 -5.68 5 -5 5 C-5 4.34 -5 3.68 -5 3 C-2.46153846 0 -2.46153846 0 0 0 Z " fill="#9B9A9A" transform="translate(656,287)"/>
<path d="M0 0 C-0.33 0.99 -0.66 1.98 -1 3 C-1.66 3 -2.32 3 -3 3 C-3 3.66 -3 4.32 -3 5 C-4.64453125 6.65625 -4.64453125 6.65625 -6.8125 8.5 C-7.52019531 9.1084375 -8.22789062 9.716875 -8.95703125 10.34375 C-11 12 -11 12 -14 14 C-12.41438362 10.14406926 -9.93490046 7.66783709 -7 4.75 C-6.113125 3.85796875 -5.22625 2.9659375 -4.3125 2.046875 C-2 0 -2 0 0 0 Z " fill="#999897" transform="translate(298,748)"/>
<path d="M0 0 C0.66 0 1.32 0 2 0 C0.60249952 3.15835107 -1.05198234 5.32272825 -3.5 7.75 C-4.41265625 8.67039062 -4.41265625 8.67039062 -5.34375 9.609375 C-7 11 -7 11 -9 11 C-9 10.34 -9 9.68 -9 9 C-8.34 9 -7.68 9 -7 9 C-6.731875 8.401875 -6.46375 7.80375 -6.1875 7.1875 C-5.00082594 5.00152146 -3.90400887 3.58667406 -2 2 C-1.34 2 -0.68 2 0 2 C0 1.34 0 0.68 0 0 Z " fill="#9D9C9B" transform="translate(366,678)"/>
<path d="M0 0 C-1.59092052 4.13639336 -4.60474918 7.23213248 -8 10 C-8.66 10 -9.32 10 -10 10 C-8.50006099 6.10015857 -4.53875449 0 0 0 Z " fill="#9E9D9B" transform="translate(410,636)"/>
<path d="M0 0 C0.66 0.33 1.32 0.66 2 1 C-1.63 4.63 -5.26 8.26 -9 12 C-9.66 11.67 -10.32 11.34 -11 11 C-9.92173635 9.72486237 -8.83714481 8.45507431 -7.75 7.1875 C-7.14671875 6.47980469 -6.5434375 5.77210938 -5.921875 5.04296875 C-4.07629602 3.08110329 -2.20054668 1.54330375 0 0 Z " fill="#9B9A9A" transform="translate(724,380)"/>
<path d="M0 0 C0 0.66 0 1.32 0 2 C-2.5 4 -2.5 4 -5 6 C-5.91828158 7.06437184 -6.8144155 8.14825051 -7.6875 9.25 C-8.450625 10.1575 -9.21375 11.065 -10 12 C-10.66 12 -11.32 12 -12 12 C-11.67 11.01 -11.34 10.02 -11 9 C-10.34 9 -9.68 9 -9 9 C-8.6596875 8.1646875 -8.6596875 8.1646875 -8.3125 7.3125 C-6.49644015 4.11277551 -3.9498923 0 0 0 Z " fill="#9C9B9A" transform="translate(792,254)"/>
<path d="M0 0 C1.46555316 0.73579212 2.92224487 1.48925126 4.375 2.25 C5.18710937 2.66765625 5.99921875 3.0853125 6.8359375 3.515625 C9.20801205 5.14267975 9.97094804 6.35386639 11 9 C10.01 9 9.02 9 8 9 C8 8.01 8 7.02 8 6 C7.01 6.33 6.02 6.66 5 7 C3 5 1 3 -1 1 C-0.67 0.67 -0.34 0.34 0 0 Z " fill="#A09F9F" transform="translate(311,631)"/>
<path d="M0 0 C0.66 0.33 1.32 0.66 2 1 C-1.3 3.97 -4.6 6.94 -8 10 C-8.66 9.34 -9.32 8.68 -10 8 C-6.7 5.36 -3.4 2.72 0 0 Z " fill="#9B9B9B" transform="translate(422,365)"/>
<path d="M0 0 C0.66 0.33 1.32 0.66 2 1 C-3 7.57142857 -3 7.57142857 -8 9 C-6.4169423 4.7257442 -3.49431596 2.73468206 0 0 Z " fill="#9C9B9B" transform="translate(460,418)"/>
<path d="M0 0 C0.66 0 1.32 0 2 0 C0.55922954 3.36179774 -1.24750021 5.59156268 -4 8 C-4.66 8 -5.32 8 -6 8 C-6 7.34 -6 6.68 -6 6 C-5.34 6 -4.68 6 -4 6 C-3.71125 5.38125 -3.4225 4.7625 -3.125 4.125 C-2 2 -2 2 0 0 Z " fill="#9D9D9B" transform="translate(323,721)"/>
<path d="M0 0 C0.33 0.66 0.66 1.32 1 2 C-0.98 4.31 -2.96 6.62 -5 9 C-5.33 8.34 -5.66 7.68 -6 7 C-4.02 4.69 -2.04 2.38 0 0 Z " fill="#9C9C9C" transform="translate(773,512)"/>
<path d="M0 0 C0.66 0 1.32 0 2 0 C0.70700306 2.88437779 -0.65941363 4.87219421 -3 7 C-3.66 6.67 -4.32 6.34 -5 6 C-3.38405168 3.95880212 -1.7143618 1.95927063 0 0 Z " fill="#9E9D9C" transform="translate(312,732)"/>
<path d="M0 0 C4.21912747 0.4794463 6.79663178 1.16625119 10 4 C3.47692308 3.38461538 3.47692308 3.38461538 1.0625 1.4375 C0.711875 0.963125 0.36125 0.48875 0 0 Z " fill="#9B9998" transform="translate(564,344)"/>
<path d="M0 0 C0.99 0.33 1.98 0.66 3 1 C1.68 1.33 0.36 1.66 -1 2 C-0.67 1.34 -0.34 0.68 0 0 Z " fill="#B1B0B0" transform="translate(481,341)"/>
<path d="M0 0 C0.99 0.33 1.98 0.66 3 1 C2.01 1.33 1.02 1.66 0 2 C0 1.34 0 0.68 0 0 Z " fill="#B0B0AF" transform="translate(480,565)"/>
<path d="M0 0 C0.66 0.66 1.32 1.32 2 2 C1.34 2 0.68 2 0 2 C0 1.34 0 0.68 0 0 Z " fill="#AEAEAD" transform="translate(312,637)"/>
<path d="M0 0 C3 1 3 1 3 1 Z " fill="#AFAFAF" transform="translate(483,566)"/>
<path d="M0 0 C2 1 2 1 2 1 Z " fill="#AAA9A9" transform="translate(572,687)"/>
<path d="M0 0 C2 1 2 1 2 1 Z " fill="#A9A8A8" transform="translate(612,679)"/>
<path d="M0 0 C2 1 2 1 2 1 Z " fill="#B0AFAE" transform="translate(334,584)"/>
<path d="M0 0 C2 1 2 1 2 1 Z " fill="#B1AFB0" transform="translate(472,408)"/>
<path d="M0 0 C2 1 2 1 2 1 Z " fill="#AEAEAE" transform="translate(496,400)"/>
<path d="M0 0 C2 1 2 1 2 1 Z " fill="#B1AEB0" transform="translate(493,400)"/>
<path d="M0 0 C2 1 2 1 2 1 Z " fill="#ADAEAE" transform="translate(712,399)"/>
<path d="" fill="#AEAFAF" transform="translate(0,0)"/>
<path d="M0 0 C2 1 2 1 2 1 Z " fill="#ACADAD" transform="translate(385,296)"/>
<path d="M0 0 C2 1 2 1 2 1 Z " fill="#A8A8A8" transform="translate(473,277)"/>
<path d="" fill="#535453" transform="translate(0,0)"/>
<path d="" fill="#A3A0A0" transform="translate(0,0)"/>
<path d="" fill="#A4A3A4" transform="translate(0,0)"/>
<path d="" fill="#A3A3A1" transform="translate(0,0)"/>
<path d="" fill="#A4A3A4" transform="translate(0,0)"/>
<path d="" fill="#A7A4A4" transform="translate(0,0)"/>
<path d="" fill="#A7A4A5" transform="translate(0,0)"/>
<path d="" fill="#A4A3A3" transform="translate(0,0)"/>
<path d="" fill="#A3A1A1" transform="translate(0,0)"/>
<path d="" fill="#A1A2A2" transform="translate(0,0)"/>
<path d="" fill="#A3A3A1" transform="translate(0,0)"/>
<path d="" fill="#ADADAD" transform="translate(0,0)"/>
<path d="" fill="#ABAAAD" transform="translate(0,0)"/>
<path d="" fill="#AAA8AA" transform="translate(0,0)"/>
<path d="" fill="#A8ABA8" transform="translate(0,0)"/>
<path d="" fill="#A9A8A8" transform="translate(0,0)"/>
<path d="" fill="#A9A9A9" transform="translate(0,0)"/>
<path d="" fill="#AEABAC" transform="translate(0,0)"/>
<path d="" fill="#ABAAA7" transform="translate(0,0)"/>
<path d="" fill="#AEAEAC" transform="translate(0,0)"/>
<path d="" fill="#ACABAB" transform="translate(0,0)"/>
<path d="" fill="#A7A9A8" transform="translate(0,0)"/>
<path d="" fill="#A7A5A5" transform="translate(0,0)"/>
<path d="" fill="#A7A6A5" transform="translate(0,0)"/>
<path d="" fill="#ADADAE" transform="translate(0,0)"/>
<path d="" fill="#AEAEAF" transform="translate(0,0)"/>
<path d="" fill="#A9A7A7" transform="translate(0,0)"/>
<path d="" fill="#ADAEAE" transform="translate(0,0)"/>
<path d="" fill="#ADAEAE" transform="translate(0,0)"/>
<path d="" fill="#AFAFAE" transform="translate(0,0)"/>
<path d="" fill="#AFB0AF" transform="translate(0,0)"/>
<path d="" fill="#AEB0B0" transform="translate(0,0)"/>
<path d="" fill="#ABABA9" transform="translate(0,0)"/>
<path d="" fill="#B1B1B0" transform="translate(0,0)"/>
<path d="" fill="#AFAFB0" transform="translate(0,0)"/>
<path d="" fill="#AFACAE" transform="translate(0,0)"/>
<path d="" fill="#B2B1B4" transform="translate(0,0)"/>
<path d="" fill="#AEAFAE" transform="translate(0,0)"/>
<path d="" fill="#AEB0B0" transform="translate(0,0)"/>
<path d="" fill="#ADB0AE" transform="translate(0,0)"/>
<path d="" fill="#ADAFAE" transform="translate(0,0)"/>
<path d="" fill="#AFAFB0" transform="translate(0,0)"/>
<path d="" fill="#AAAAAA" transform="translate(0,0)"/>
<path d="" fill="#AEADAE" transform="translate(0,0)"/>
<path d="" fill="#ADABAB" transform="translate(0,0)"/>
<path d="" fill="#A9A8A9" transform="translate(0,0)"/>
<path d="" fill="#AEACAE" transform="translate(0,0)"/>
<path d="" fill="#A8A9A9" transform="translate(0,0)"/>
<path d="" fill="#B3B3B1" transform="translate(0,0)"/>
<path d="" fill="#AFADAD" transform="translate(0,0)"/>
<path d="" fill="#AFAEAE" transform="translate(0,0)"/>
<path d="" fill="#A7A6A8" transform="translate(0,0)"/>
<path d="" fill="#AFADAE" transform="translate(0,0)"/>
<path d="" fill="#ADACAE" transform="translate(0,0)"/>
<path d="" fill="#ACADAF" transform="translate(0,0)"/>
<path d="" fill="#ACAEAE" transform="translate(0,0)"/>
<path d="" fill="#A7A7A7" transform="translate(0,0)"/>
<path d="" fill="#AAA9A8" transform="translate(0,0)"/>
<path d="" fill="#A9A8A9" transform="translate(0,0)"/>
<path d="" fill="#AAAAA8" transform="translate(0,0)"/>
<path d="" fill="#A7A6A9" transform="translate(0,0)"/>
<path d="" fill="#ADAEAD" transform="translate(0,0)"/>
<path d="" fill="#AFAEAF" transform="translate(0,0)"/>
<path d="" fill="#ADAEAD" transform="translate(0,0)"/>
<path d="" fill="#AEB0B1" transform="translate(0,0)"/>
<path d="" fill="#A8A7A9" transform="translate(0,0)"/>
<path d="" fill="#AFB0B1" transform="translate(0,0)"/>
<path d="" fill="#AEADAD" transform="translate(0,0)"/>
<path d="" fill="#ADAEAE" transform="translate(0,0)"/>
<path d="" fill="#AFAFAE" transform="translate(0,0)"/>
<path d="" fill="#ADACAE" transform="translate(0,0)"/>
<path d="" fill="#AEADAE" transform="translate(0,0)"/>
<path d="" fill="#ADAEAF" transform="translate(0,0)"/>
<path d="" fill="#AFAFAF" transform="translate(0,0)"/>
<path d="" fill="#AEAFAE" transform="translate(0,0)"/>
<path d="" fill="#A3A3A3" transform="translate(0,0)"/>
<path d="" fill="#A5A6A5" transform="translate(0,0)"/>
<path d="" fill="#AFADAF" transform="translate(0,0)"/>
<path d="" fill="#AEAFAD" transform="translate(0,0)"/>
<path d="" fill="#AEACAE" transform="translate(0,0)"/>
<path d="" fill="#A6A5A5" transform="translate(0,0)"/>
<path d="" fill="#ACAFAE" transform="translate(0,0)"/>
<path d="" fill="#B0B0AF" transform="translate(0,0)"/>
<path d="" fill="#AFB0B2" transform="translate(0,0)"/>
<path d="" fill="#AFAFAF" transform="translate(0,0)"/>
<path d="" fill="#AFAEAE" transform="translate(0,0)"/>
<path d="" fill="#AAA8A8" transform="translate(0,0)"/>
<path d="" fill="#B2B1B2" transform="translate(0,0)"/>
<path d="" fill="#ADADAE" transform="translate(0,0)"/>
<path d="" fill="#ACACAA" transform="translate(0,0)"/>
<path d="" fill="#AFAEAF" transform="translate(0,0)"/>
<path d="" fill="#AEADAD" transform="translate(0,0)"/>
<path d="" fill="#AFAEAD" transform="translate(0,0)"/>
<path d="" fill="#AEAEAE" transform="translate(0,0)"/>
<path d="" fill="#AEAEAF" transform="translate(0,0)"/>
<path d="" fill="#AFAEAE" transform="translate(0,0)"/>
<path d="" fill="#AFAFB0" transform="translate(0,0)"/>
<path d="" fill="#AFAEB0" transform="translate(0,0)"/>
<path d="" fill="#ACACAB" transform="translate(0,0)"/>
<path d="" fill="#AEAFB0" transform="translate(0,0)"/>
<path d="" fill="#A7A8A7" transform="translate(0,0)"/>
<path d="" fill="#B0AEAE" transform="translate(0,0)"/>
<path d="" fill="#AAA9AA" transform="translate(0,0)"/>
<path d="" fill="#B1B0B1" transform="translate(0,0)"/>
<path d="" fill="#AEADAF" transform="translate(0,0)"/>
<path d="" fill="#B1AEAF" transform="translate(0,0)"/>
<path d="" fill="#B0AFAF" transform="translate(0,0)"/>
<path d="" fill="#ADADAD" transform="translate(0,0)"/>
<path d="" fill="#ADADAC" transform="translate(0,0)"/>
<path d="" fill="#ABAAA9" transform="translate(0,0)"/>
<path d="" fill="#AEADAD" transform="translate(0,0)"/>
<path d="" fill="#AEAFAC" transform="translate(0,0)"/>
<path d="" fill="#ADABAB" transform="translate(0,0)"/>
<path d="" fill="#AAA9A8" transform="translate(0,0)"/>
<path d="" fill="#B0AFAF" transform="translate(0,0)"/>
<path d="" fill="#AFADAD" transform="translate(0,0)"/>
<path d="" fill="#AFAEAD" transform="translate(0,0)"/>
<path d="" fill="#B1AFB0" transform="translate(0,0)"/>
<path d="" fill="#ACADAD" transform="translate(0,0)"/>
<path d="" fill="#AFADAF" transform="translate(0,0)"/>
<path d="" fill="#ADACAF" transform="translate(0,0)"/>
<path d="" fill="#B1AFB0" transform="translate(0,0)"/>
<path d="" fill="#AFADAF" transform="translate(0,0)"/>
<path d="" fill="#AEADAD" transform="translate(0,0)"/>
<path d="" fill="#AEADAE" transform="translate(0,0)"/>
<path d="" fill="#B0B0AE" transform="translate(0,0)"/>
<path d="" fill="#AEAEAD" transform="translate(0,0)"/>
<path d="" fill="#AFAFB0" transform="translate(0,0)"/>
<path d="" fill="#AFAFB0" transform="translate(0,0)"/>
<path d="" fill="#AFAEAE" transform="translate(0,0)"/>
<path d="" fill="#B0AEAE" transform="translate(0,0)"/>
<path d="" fill="#ABA9AA" transform="translate(0,0)"/>
<path d="" fill="#AFAFAD" transform="translate(0,0)"/>
<path d="" fill="#A9A7A6" transform="translate(0,0)"/>
<path d="" fill="#A8A9A7" transform="translate(0,0)"/>
<path d="" fill="#AEAEAD" transform="translate(0,0)"/>
<path d="" fill="#AAA9A9" transform="translate(0,0)"/>
<path d="" fill="#A9A8AA" transform="translate(0,0)"/>
<path d="" fill="#A9A9A8" transform="translate(0,0)"/>
<path d="" fill="#9D9C9D" transform="translate(0,0)"/>
<path d="" fill="#A7A6A6" transform="translate(0,0)"/>
<path d="" fill="#A3A3A4" transform="translate(0,0)"/>
<path d="" fill="#545455" transform="translate(0,0)"/>
<path d="" fill="#504F4F" transform="translate(0,0)"/>
</svg>
