<svg width="27" height="23" viewBox="0 0 27 23" fill="none" xmlns="http://www.w3.org/2000/svg">
<path d="M0 11.5C1.17299 4.95778 6.7709 0 13.4994 0C20.2278 0 25.8258 4.95778 27 11.5C25.827 18.0422 20.2278 23 13.4994 23C6.7709 23 1.17299 18.0422 0 11.5ZM13.4994 17.8889C15.1541 17.8889 16.7411 17.2158 17.9112 16.0176C19.0813 14.8195 19.7387 13.1944 19.7387 11.5C19.7387 9.80556 19.0813 8.18052 17.9112 6.98237C16.7411 5.78422 15.1541 5.11111 13.4994 5.11111C11.8446 5.11111 10.2576 5.78422 9.08751 6.98237C7.91742 8.18052 7.26006 9.80556 7.26006 11.5C7.26006 13.1944 7.91742 14.8195 9.08751 16.0176C10.2576 17.2158 11.8446 17.8889 13.4994 17.8889ZM13.4994 15.3333C12.5065 15.3333 11.5543 14.9295 10.8523 14.2106C10.1502 13.4917 9.75579 12.5167 9.75579 11.5C9.75579 10.4833 10.1502 9.50831 10.8523 8.78942C11.5543 8.07053 12.5065 7.66667 13.4994 7.66667C14.4922 7.66667 15.4444 8.07053 16.1465 8.78942C16.8485 9.50831 17.243 10.4833 17.243 11.5C17.243 12.5167 16.8485 13.4917 16.1465 14.2106C15.4444 14.9295 14.4922 15.3333 13.4994 15.3333Z" fill="#B3B3B3"/>
</svg>
