<svg xmlns="http://www.w3.org/2000/svg" fill="none" viewBox="0 0 24 24" stroke="#b3b3b3" stroke-width="1.5" height="100px" width="100px" data-originalstrokecolor="#9b1fe8" transform="rotate(0) scale(1, 1)">
  <path stroke-linecap="round" stroke-linejoin="round" d="M3 3l18 18M10.477 10.477A3 3 0 0113.5 13.5M9.63 5.293A8.959 8.959 0 0112 5c4.478 0 8.268 2.943 9.542 7-.61 1.943-1.818 3.598-3.393 4.738M6.35 6.35C4.706 7.714 3.507 9.74 2.958 12c.51 1.96 1.603 3.72 3.132 5.045A8.933 8.933 0 0012 19c1.283 0 2.503-.253 3.61-.707"/>
</svg>