<svg width="48" height="50" viewBox="0 0 48 50" fill="none" xmlns="http://www.w3.org/2000/svg">
<path d="M26.6667 44.662H42.6667V20.5824L24 6.05245L5.33333 20.5824V44.662H21.3333V28.6481H26.6667V44.662ZM48 47.331C48 48.0389 47.7191 48.7177 47.219 49.2183C46.7189 49.7188 46.0406 50 45.3333 50H2.66667C1.95942 50 1.28115 49.7188 0.781049 49.2183C0.280952 48.7177 6.41894e-07 48.0389 6.41894e-07 47.331V19.28C-0.00028129 18.8732 0.0923125 18.4718 0.270709 18.1064C0.449106 17.741 0.708587 17.4212 1.02933 17.1714L22.3627 0.56234C22.8308 0.197877 23.4069 0 24 0C24.5931 0 25.1692 0.197877 25.6373 0.56234L46.9707 17.1714C47.2914 17.4212 47.5509 17.741 47.7293 18.1064C47.9077 18.4718 48.0003 18.8732 48 19.28V47.331Z" fill="#4D00FF"/>
</svg>
