<svg width="50" height="50" viewBox="0 0 50 50" fill="none" xmlns="http://www.w3.org/2000/svg">
<path d="M35 45V5H5V42.5C5 43.163 5.26339 43.7989 5.73223 44.2678C6.20107 44.7366 6.83696 45 7.5 45H35ZM42.5 50H7.5C5.51088 50 3.60322 49.2098 2.1967 47.8033C0.790177 46.3968 0 44.4891 0 42.5V2.5C0 1.83696 0.263392 1.20107 0.732233 0.732233C1.20107 0.263392 1.83696 0 2.5 0H37.5C38.163 0 38.7989 0.263392 39.2678 0.732233C39.7366 1.20107 40 1.83696 40 2.5V20H50V42.5C50 44.4891 49.2098 46.3968 47.8033 47.8033C46.3968 49.2098 44.4891 50 42.5 50ZM40 25V42.5C40 43.163 40.2634 43.7989 40.7322 44.2678C41.2011 44.7366 41.837 45 42.5 45C43.163 45 43.7989 44.7366 44.2678 44.2678C44.7366 43.7989 45 43.163 45 42.5V25H40ZM10 10H25V25H10V10ZM15 15V20H20V15H15ZM10 27.5H30V32.5H10V27.5ZM10 35H30V40H10V35Z" fill="#4D00FF"/>
</svg>
