<svg width="63" height="50" viewBox="0 0 63 50" fill="none" xmlns="http://www.w3.org/2000/svg">
<path d="M10.5 26.3158V39.4737H52.5V26.3158H10.5ZM14.7472 21.0526H48.2528C48.7 21.0524 49.1398 20.9376 49.5304 20.7191C49.921 20.5006 50.2494 20.1857 50.4845 19.8042C50.7196 19.4228 50.8536 18.9874 50.8737 18.5395C50.8938 18.0915 50.7994 17.6458 50.5995 17.2447L47.25 10.5263H15.75L12.4005 17.2447C12.2006 17.6458 12.1062 18.0915 12.1263 18.5395C12.1464 18.9874 12.2804 19.4228 12.5155 19.8042C12.7506 20.1857 13.079 20.5006 13.4696 20.7191C13.8602 20.9376 14.3 21.0524 14.7472 21.0526ZM57.75 27.6316V47.3684C57.75 48.0664 57.4734 48.7357 56.9812 49.2292C56.4889 49.7227 55.8212 50 55.125 50H52.5C51.8038 50 51.1361 49.7227 50.6438 49.2292C50.1516 48.7357 49.875 48.0664 49.875 47.3684V44.7368H13.125V47.3684C13.125 48.0664 12.8484 48.7357 12.3562 49.2292C11.8639 49.7227 11.1962 50 10.5 50H7.875C7.17881 50 6.51113 49.7227 6.01884 49.2292C5.52656 48.7357 5.25 48.0664 5.25 47.3684V27.6316L1.98713 26.8158C1.41948 26.6732 0.915623 26.3446 0.555595 25.8821C0.195568 25.4196 1.53836e-05 24.8498 0 24.2632L0 22.3684C0 22.0195 0.138281 21.6848 0.384422 21.438C0.630564 21.1913 0.964403 21.0526 1.3125 21.0526H5.25L11.6734 8.17368C12.1095 7.29877 12.7801 6.56299 13.6101 6.04889C14.4401 5.53479 15.3965 5.2627 16.3721 5.26316H21V0H28.875V5.26316H34.125V0H42V5.26316H46.6305C47.6057 5.26319 48.5616 5.53551 49.391 6.04958C50.2205 6.56366 50.8907 7.29917 51.3266 8.17368L57.75 21.0526H61.6875C62.0356 21.0526 62.3694 21.1913 62.6156 21.438C62.8617 21.6848 63 22.0195 63 22.3684V24.2632C62.9998 24.8502 62.8039 25.4203 62.4434 25.8828C62.0828 26.3453 61.5784 26.6737 61.0103 26.8158L57.75 27.6316ZM13.125 28.9474C19.208 28.9474 23.3083 30.9333 25.4257 34.9053C25.5328 35.1058 25.5862 35.3307 25.5808 35.5581C25.5753 35.7854 25.5111 36.0075 25.3945 36.2026C25.2779 36.3977 25.1128 36.5592 24.9154 36.6713C24.718 36.7833 24.495 36.8422 24.2681 36.8421H15.75C15.0538 36.8421 14.3861 36.5649 13.8938 36.0713C13.4016 35.5778 13.125 34.9085 13.125 34.2105V28.9474ZM49.875 28.9474V34.2105C49.875 34.9085 49.5984 35.5778 49.1062 36.0713C48.6139 36.5649 47.9462 36.8421 47.25 36.8421H38.7319C38.5052 36.8417 38.2825 36.7825 38.0855 36.6703C37.8884 36.558 37.7237 36.3965 37.6074 36.2015C37.4911 36.0065 37.4272 35.7846 37.4218 35.5574C37.4165 35.3302 37.4699 35.1056 37.5769 34.9053C39.6926 30.9333 43.792 28.9474 49.875 28.9474Z" fill="#4D00FF"/>
</svg>
