<svg width="63" height="50" viewBox="0 0 63 50" fill="none" xmlns="http://www.w3.org/2000/svg">
<path d="M57.75 27.6316V47.3684C57.75 48.0664 57.4734 48.7357 56.9812 49.2292C56.4889 49.7227 55.8212 50 55.125 50H52.5C51.8038 50 51.1361 49.7227 50.6438 49.2292C50.1516 48.7357 49.875 48.0664 49.875 47.3684V44.7368H13.125V47.3684C13.125 48.0664 12.8484 48.7357 12.3562 49.2292C11.8639 49.7227 11.1962 50 10.5 50H7.875C7.17881 50 6.51113 49.7227 6.01884 49.2292C5.52656 48.7357 5.25 48.0664 5.25 47.3684V27.6316L1.98713 26.8158C1.41948 26.6732 0.915623 26.3446 0.555595 25.8821C0.195568 25.4196 1.53836e-05 24.8498 0 24.2632L0 22.3684C0 22.0195 0.138281 21.6848 0.384422 21.438C0.630564 21.1913 0.964403 21.0526 1.3125 21.0526H6.37612L11.76 8.45263C12.1649 7.50567 12.8382 6.69869 13.6963 6.13172C14.5544 5.56476 15.5597 5.26276 16.5874 5.26316H21V0H28.875V5.26316H34.125V0H42V5.26316H46.4126C47.4399 5.26327 48.4446 5.56552 49.3022 6.13245C50.1598 6.69938 50.8326 7.50609 51.2374 8.45263L56.6265 21.0526H61.6875C62.0356 21.0526 62.3694 21.1913 62.6156 21.438C62.8617 21.6848 63 22.0195 63 22.3684V24.2632C62.9998 24.8502 62.8039 25.4203 62.4434 25.8828C62.0828 26.3453 61.5784 26.6737 61.0103 26.8158L57.75 27.6316ZM10.5 31.5789V36.8421C10.5 37.54 10.7766 38.2094 11.2688 38.7029C11.7611 39.1964 12.4288 39.4737 13.125 39.4737H21.6431C21.8698 39.4733 22.0925 39.4141 22.2895 39.3019C22.4866 39.1896 22.6513 39.0281 22.7676 38.8331C22.8839 38.638 22.9478 38.4161 22.9532 38.189C22.9585 37.9618 22.9051 37.7372 22.7981 37.5368C20.6824 33.5649 16.583 31.5789 10.5 31.5789ZM52.5 31.5789C46.417 31.5789 42.3167 33.5649 40.1992 37.5368C40.0922 37.7374 40.0388 37.9623 40.0442 38.1896C40.0497 38.417 40.1139 38.6391 40.2305 38.8342C40.3471 39.0293 40.5122 39.1908 40.7096 39.3028C40.907 39.4149 41.13 39.4738 41.3569 39.4737H49.875C50.5712 39.4737 51.2389 39.1964 51.7312 38.7029C52.2234 38.2094 52.5 37.54 52.5 36.8421V31.5789ZM15.75 10.5263L11.9411 20.0763C11.7821 20.4755 11.7229 20.9076 11.7689 21.3349C11.8149 21.7623 11.9646 22.1718 12.205 22.5277C12.4453 22.8837 12.7689 23.1752 13.1476 23.3768C13.5262 23.5784 13.9484 23.6839 14.3771 23.6842H48.6229C49.0516 23.6839 49.4738 23.5784 49.8524 23.3768C50.2311 23.1752 50.5547 22.8837 50.795 22.5277C51.0354 22.1718 51.1851 21.7623 51.2311 21.3349C51.2771 20.9076 51.2179 20.4755 51.0589 20.0763L47.25 10.5263H15.75Z" fill="#4D00FF"/>
</svg>
